# Blender 3.5.1
# www.blender.org
mtllib Red_Mushroom_01.mtl
o Red_Mushroom
v 1.548343 -0.767008 -1.863152
v 2.528083 0.041388 -0.217528
v 2.272499 -0.546537 -0.133137
v 1.761330 0.335351 1.681270
v 1.548343 -0.252574 1.596879
v -0.155553 0.519077 2.482984
v -0.198151 -0.068847 2.314202
v -2.072436 0.482332 1.681270
v -1.944644 -0.105593 1.639074
v -2.881786 0.261860 -0.175332
v -2.668799 -0.326065 -0.090941
v -2.115033 -0.032103 -2.074130
v -1.944644 -0.620027 -1.820957
v -0.198151 -0.252574 -2.875844
v -0.198151 -0.803754 -2.538280
v 1.718733 -0.215829 -2.074130
v 1.335356 1.364219 -1.863152
v 1.974317 1.547945 -0.428505
v 1.377954 1.768417 1.048337
v -0.112956 1.915399 1.681270
v -1.603865 1.915399 1.048337
v -2.200229 1.694927 -0.428505
v -1.603865 1.474455 -1.863152
v -0.112956 1.327474 -2.496085
v 0.313019 2.393088 -1.525588
v 0.909382 2.576814 -0.133137
v -0.496332 2.723795 0.457600
v -1.092696 2.540069 -0.934851
v -0.837111 -1.942858 -0.217528
v 0.313019 -1.942858 -0.850460
v -1.050098 0.041388 -0.766069
v -0.283345 0.004643 -1.314611
v 1.079771 -1.942858 0.415405
v 0.526006 0.078134 -0.217528
v 0.185226 -1.942858 1.512488
v -0.027761 0.114879 0.331014
v -0.751917 -1.942858 1.132728
v -0.922306 0.151624 0.162232
v -0.837111 -1.942858 -0.217528
v -1.050098 0.041388 -0.766069
vn 0.6350 -0.4911 -0.5963
vn 0.9993 -0.0371 -0.0000
vn 0.9109 -0.4093 0.0528
vn 0.7090 0.0764 0.7010
vn 0.9109 -0.4093 0.0529
vn 0.7091 0.0764 0.7010
vn 0.6473 -0.3032 0.6994
vn 0.0075 0.1458 0.9893
vn 0.6473 -0.3032 0.6993
vn -0.0075 -0.2401 0.9707
vn 0.0075 0.1459 0.9893
vn -0.6988 0.1329 0.7028
vn -0.0076 -0.2401 0.9707
vn -0.6631 -0.2528 0.7045
vn -0.6988 0.1329 0.7029
vn -0.9991 0.0415 -0.0000
vn -0.6632 -0.2528 0.7045
vn -0.9403 -0.3363 0.0528
vn -0.7095 -0.0677 -0.7015
vn -0.7095 -0.0677 -0.7014
vn -0.6748 -0.4370 -0.5947
vn -0.0075 -0.1415 -0.9899
vn -0.0075 -0.1416 -0.9899
vn -0.0207 -0.4987 -0.8665
vn -0.0076 -0.1415 -0.9899
vn 0.7019 -0.1285 -0.7006
vn -0.0208 -0.4987 -0.8665
vn -0.0208 -0.4988 -0.8665
vn 0.7019 -0.1286 -0.7006
vn 0.6350 -0.4912 -0.5963
vn 0.6157 0.4487 -0.6477
vn 0.8500 0.5175 -0.0978
vn 0.8501 0.5175 -0.0978
vn 0.8500 0.5176 -0.0978
vn 0.6011 0.6181 0.5066
vn 0.0076 0.1458 0.9893
vn 0.0471 0.6715 0.7395
vn -0.5692 0.6617 0.4880
vn -0.8049 0.5903 -0.0603
vn -0.5552 0.4912 -0.6712
vn -0.5553 0.4911 -0.6712
vn 0.0019 0.4370 -0.8995
vn 0.1989 0.8310 -0.5195
vn 0.4300 0.9023 0.0301
vn 0.4300 0.9023 0.0300
vn -0.1221 0.9575 0.2615
vn -0.1220 0.9574 0.2615
vn -0.1221 0.9574 0.2615
vn -0.8050 0.5903 -0.0604
vn -0.3562 0.8887 -0.2886
vn -0.8050 0.5902 -0.0603
vn -0.8050 0.5903 -0.0603
vn -0.3562 0.8887 -0.2885
vn -0.5553 0.4912 -0.6712
vn -0.3563 0.8887 -0.2885
vn -0.1220 0.9575 0.2615
vn -0.8939 -0.1889 -0.4065
vn -0.8769 -0.2402 -0.4163
vn 0.3946 -0.0590 -0.9170
vn -0.8769 -0.2401 -0.4163
vn 0.0189 -0.2486 -0.9684
vn 0.3946 -0.0590 -0.9169
vn 0.0189 -0.2487 -0.9684
vn 0.9345 0.3322 0.1279
vn 0.9617 0.2655 -0.0678
vn 0.9345 0.3321 0.1280
vn 0.9345 0.3322 0.1280
vn 0.9617 0.2655 -0.0679
vn 0.2128 0.4987 0.8402
vn 0.2853 0.4720 0.8342
vn 0.2128 0.4988 0.8402
vn -0.6718 0.3032 0.6758
vn -0.8058 0.1717 0.5668
vn -0.2945 -0.8699 0.3957
vn -0.3298 -0.8818 0.3371
vn -0.3887 -0.9168 0.0916
vn -0.2686 -0.9539 -0.1338
vn 0.0728 -0.9712 -0.2268
vn 0.2618 -0.9638 -0.0504
vn 0.3033 -0.9370 0.1732
vn 0.1915 -0.8958 0.4012
vn 0.5021 -0.7968 -0.3360
vn 0.3273 -0.8710 0.3665
vn -0.2807 -0.8473 0.4508
vn -0.6948 -0.6963 -0.1801
vn -0.4779 -0.8752 -0.0754
vt 0.214619 0.241910
vt 0.182625 0.190211
vt 0.190322 0.182565
vt 0.131119 0.168683
vt 0.131182 0.157741
vt 0.079552 0.189934
vt 0.071865 0.182094
vt 0.058037 0.241276
vt 0.047067 0.241234
vt 0.079121 0.292876
vt 0.071334 0.300607
vt 0.130528 0.314418
vt 0.130494 0.325332
vt 0.182185 0.293323
vt 0.189792 0.301078
vt 0.203719 0.241882
vt 0.174672 0.241628
vt 0.162052 0.210831
vt 0.130818 0.197746
vt 0.100176 0.210535
vt 0.087254 0.241530
vt 0.099663 0.272284
vt 0.130759 0.285342
vt 0.161601 0.272764
vt 0.148868 0.249089
vt 0.138517 0.223550
vt 0.113210 0.234167
vt 0.123459 0.259480
vt 0.322549 0.720505
vt 0.358539 0.693431
vt 0.282030 0.662199
vt 0.307888 0.642731
vt 0.374511 0.665395
vt 0.353437 0.623512
vt 0.380216 0.660785
vt 0.376609 0.622805
vt 0.386234 0.663090
vt 0.402906 0.624962
vt 0.407341 0.697814
vt 0.434395 0.632270
s 0
usemtl object_0
f 1/1/1 2/2/2 3/3/3
f 2/2/2 4/4/4 3/3/3
f 3/3/5 4/4/6 5/5/7
f 4/4/4 6/6/8 5/5/9
f 5/5/7 6/6/8 7/7/10
f 6/6/11 8/8/12 7/7/13
f 7/7/10 8/8/12 9/9/14
f 8/8/15 10/10/16 9/9/14
f 9/9/17 10/10/16 11/11/18
f 10/10/16 12/12/19 11/11/18
f 11/11/18 12/12/20 13/13/21
f 12/12/19 14/14/22 13/13/21
f 13/13/21 14/14/23 15/15/24
f 14/14/25 16/16/26 15/15/27
f 15/15/28 16/16/29 1/1/30
f 1/1/1 16/16/26 2/2/2
f 16/16/29 17/17/31 2/2/2
f 17/17/31 18/18/32 2/2/2
f 2/2/2 18/18/33 4/4/4
f 18/18/34 19/19/35 4/4/4
f 4/4/4 19/19/35 6/6/36
f 19/19/35 20/20/37 6/6/11
f 6/6/11 20/20/37 8/8/12
f 20/20/37 21/21/38 8/8/12
f 8/8/12 21/21/38 10/10/16
f 21/21/38 22/22/39 10/10/16
f 10/10/16 22/22/39 12/12/19
f 22/22/39 23/23/40 12/12/20
f 12/12/19 23/23/40 14/14/22
f 23/23/41 24/24/42 14/14/25
f 14/14/25 24/24/42 16/16/26
f 16/16/26 24/24/42 17/17/31
f 24/24/42 25/25/43 17/17/31
f 17/17/31 25/25/43 18/18/34
f 25/25/43 26/26/44 18/18/33
f 18/18/34 26/26/45 19/19/35
f 19/19/35 26/26/44 20/20/37
f 26/26/44 27/27/46 20/20/37
f 20/20/37 27/27/47 21/21/38
f 21/21/38 27/27/48 22/22/49
f 27/27/46 28/28/50 22/22/51
f 22/22/52 28/28/53 23/23/40
f 23/23/54 28/28/50 24/24/42
f 24/24/42 28/28/50 25/25/43
f 28/28/55 27/27/56 25/25/43
f 25/25/43 27/27/46 26/26/45
f 29/29/57 31/31/58 30/30/59
f 31/31/60 32/32/61 30/30/59
f 30/30/62 32/32/63 33/33/64
f 32/32/63 34/34/65 33/33/66
f 33/33/67 34/34/68 35/35/69
f 34/34/68 36/36/70 35/35/69
f 35/35/71 36/36/70 37/37/72
f 36/36/70 38/38/73 37/37/72
f 37/37/72 38/38/73 39/39/57
f 38/38/73 40/40/58 39/39/57
f 9/9/74 11/11/75 13/13/76 15/15/77 1/1/78 3/3/79 5/5/80 7/7/81
f 30/30/82 33/33/83 35/35/84 37/37/85 39/39/86
