# Blender 3.5.1
# www.blender.org
mtllib Red_Mushroom_02.mtl
o Red_Mushroom_2
v 2.104362 -2.243041 -0.133317
v 1.348761 -2.135041 -1.758047
v 3.867433 -1.325038 -0.070828
v 3.174798 -1.325038 -2.132985
v 1.726562 -1.163037 -3.570246
v 3.111831 0.348968 -2.132985
v 1.915462 0.402969 -3.257797
v -0.162443 -0.947036 -4.070162
v 0.026458 0.618969 -3.882694
v -0.288376 -1.919040 -2.570412
v 3.741499 0.348969 -0.133318
v 2.734030 1.968974 -0.258297
v 3.237764 0.510969 1.616391
v 3.867433 -1.325038 -0.070828
v 3.237764 -1.217037 1.678881
v 2.104362 -2.243041 -0.133317
v 1.285794 -2.189041 1.491412
v 1.663595 -1.055036 3.241121
v -0.162443 -0.839036 3.866017
v 1.789528 0.726970 2.991162
v 0.089425 0.942971 3.553569
v 1.915462 2.238976 1.303943
v 0.341292 2.454977 2.053818
v 0.593159 4.182982 0.866516
v -1.295845 2.670977 1.116474
v -1.610679 1.104972 2.928673
v -0.162443 -0.839036 3.866017
v -1.862546 -0.623035 3.366100
v -0.351343 -1.973040 2.241287
v -1.988480 -1.811039 1.366433
v -3.436716 -0.461034 1.866350
v -4.129351 -0.407034 -0.445766
v -3.058915 1.212972 1.553902
v -2.051446 2.670977 -0.508255
v -3.625617 1.266972 -0.508255
v -0.351343 -1.973040 2.241287
v -2.744081 -1.703039 -0.320786
v -2.995949 1.158971 -2.320454
v -4.129351 -0.407034 -0.445766
v -3.373749 -0.515035 -2.257964
v -2.744081 -1.703039 -0.320786
v -1.925513 -1.757039 -1.945516
v -2.051446 -0.677036 -3.570246
v -0.162443 -0.947036 -4.070162
v -1.673646 0.888970 -3.570246
v -1.232878 2.508976 -2.070496
v -0.792110 4.344983 -0.570745
v -0.351343 4.344983 0.366599
v 0.656126 4.614985 -0.570745
v -0.351343 4.182982 -1.508089
v 0.593159 3.912982 -1.820537
v 0.341292 2.184975 -2.695391
v 1.978429 2.022974 -1.883026
v 1.978429 3.750981 -0.445766
v 1.474694 3.966982 0.491578
v 1.537661 3.804981 -1.383110
v -0.288376 -1.919040 -2.570412
vn 0.4504 -0.8927 -0.0151
vn 0.2893 -0.8907 -0.3507
vn 0.8857 -0.4643 0.0075
vn 0.8856 -0.4643 0.0076
vn 0.2893 -0.8907 -0.3506
vn 0.7412 -0.4835 -0.4657
vn 0.3943 -0.4172 -0.8188
vn 0.8148 0.2907 -0.5016
vn 0.4864 0.3404 -0.8047
vn -0.0397 -0.3973 -0.9168
vn -0.0397 -0.3972 -0.9169
vn 0.1092 0.3690 -0.9230
vn -0.1089 -0.8406 -0.5306
vn 0.8857 -0.4643 0.0076
vn 0.9580 0.2865 -0.0151
vn 0.8618 0.5063 -0.0302
vn 0.8226 0.3115 0.4757
vn 0.7438 -0.4526 0.4918
vn 0.7437 -0.4526 0.4919
vn 0.7438 -0.4526 0.4919
vn 0.2867 -0.8568 0.4286
vn 0.4326 -0.4212 0.7971
vn -0.0189 -0.3404 0.9401
vn 0.4966 0.3812 0.7798
vn 0.4967 0.3812 0.7798
vn 0.0433 0.4526 0.8906
vn 0.6307 0.5508 0.5467
vn 0.0565 0.6318 0.7731
vn 0.1014 0.7598 0.6422
vn 0.0565 0.6317 0.7731
vn 0.1013 0.7597 0.6423
vn -0.4979 0.6875 0.5286
vn -0.4979 0.6875 0.5285
vn 0.0433 0.4526 0.8907
vn -0.3903 0.5176 0.7614
vn 0.0434 0.4526 0.8906
vn -0.3903 0.5176 0.7615
vn -0.0188 -0.3404 0.9401
vn -0.4961 -0.2739 0.8239
vn -0.0189 -0.3405 0.9401
vn -0.0829 -0.8261 0.5574
vn -0.0829 -0.8261 0.5573
vn -0.5275 -0.7682 0.3627
vn -0.8363 -0.2528 0.4865
vn -0.9700 -0.2401 -0.0378
vn -0.7251 0.5175 0.4542
vn -0.4960 -0.2739 0.8240
vn -0.7252 0.5176 0.4542
vn -0.3903 0.5175 0.7615
vn -0.7251 0.5176 0.4542
vn -0.7000 0.7125 -0.0489
vn -0.8569 0.5138 -0.0414
vn -0.7252 0.5175 0.4542
vn -0.8569 0.5138 -0.0415
vn -0.9700 -0.2402 -0.0377
vn 0.8226 0.3115 0.4756
vn 0.6306 0.5508 0.5467
vn -0.6699 -0.7425 0.0038
vn -0.7112 0.4643 -0.5279
vn -0.9700 -0.2401 -0.0377
vn -0.8035 -0.2990 -0.5147
vn -0.8035 -0.2990 -0.5148
vn -0.6699 -0.7424 0.0038
vn -0.4689 -0.7765 -0.4208
vn -0.4943 -0.3609 -0.7908
vn -0.4689 -0.7766 -0.4208
vn -0.4689 -0.7765 -0.4209
vn -0.4944 -0.3609 -0.7908
vn -0.0396 -0.3973 -0.9168
vn -0.3563 0.4133 -0.8380
vn -0.0396 -0.3973 -0.9169
vn -0.3563 0.4132 -0.8380
vn -0.4330 0.6352 -0.6396
vn -0.4330 0.6351 -0.6396
vn -0.7000 0.7125 -0.0490
vn -0.5801 0.8111 -0.0751
vn -0.3973 0.8111 0.4293
vn 0.1013 0.7598 0.6423
vn -0.3974 0.8110 0.4293
vn 0.1905 0.9772 -0.0941
vn -0.3316 0.7366 -0.5895
vn -0.3316 0.7366 -0.5894
vn -0.3317 0.7366 -0.5895
vn 0.1571 0.6351 -0.7562
vn 0.1571 0.6351 -0.7563
vn 0.1204 0.5101 -0.8517
vn 0.6330 0.4797 -0.6076
vn 0.6330 0.4797 -0.6077
vn 0.1091 0.3690 -0.9230
vn 0.8034 0.5938 -0.0453
vn 0.6063 0.6683 0.4311
vn 0.6063 0.6682 0.4312
vn 0.1013 0.7598 0.6422
vn 0.6062 0.6683 0.4312
vn 0.6166 0.5796 -0.5327
vn 0.1572 0.6351 -0.7562
vn 0.6167 0.5796 -0.5327
vn 0.8034 0.5938 -0.0452
vn 0.1427 -0.9898 -0.0048
vn 0.0188 -0.9916 0.1277
vn -0.0393 -0.9793 0.1983
vn -0.3905 -0.9191 -0.0521
vn -0.2379 -0.9522 -0.1914
vn -0.1623 -0.9688 -0.1875
vn -0.1412 -0.9425 -0.3030
vn 0.1439 -0.9889 -0.0368
vn -0.0848 -0.9961 -0.0258
vn -0.0388 -0.9718 0.2327
vn -0.3041 -0.9526 0.0075
vn -0.1276 -0.9918 -0.0066
vt 0.171252 0.549184
vt 0.159906 0.544367
vt 0.160861 0.558191
vt 0.188736 0.539221
vt 0.166228 0.532313
vt 0.150093 0.533126
vt 0.166123 0.516257
vt 0.148832 0.518087
vt 0.127355 0.545103
vt 0.120054 0.520175
vt 0.148429 0.550059
vt 0.191843 0.516392
vt 0.182763 0.490318
vt 0.180954 0.506139
vt 0.217434 0.510249
vt 0.188760 0.539236
vt 0.218466 0.541841
vt 0.181320 0.517315
vt 0.169037 0.524604
vt 0.183744 0.562446
vt 0.220971 0.595966
vt 0.182206 0.536461
vt 0.201297 0.520068
vt 0.266428 0.537810
vt 0.199316 0.498269
vt 0.237026 0.439136
vt 0.171834 0.246972
vt 0.176830 0.491020
vt 0.205773 0.467508
vt 0.214075 0.420880
vt 0.179766 0.474526
vt 0.164763 0.482636
vt 0.171662 0.443807
vt 0.159177 0.461488
vt 0.143502 0.231364
vt 0.184779 0.410354
vt 0.185367 0.207870
vt 0.148912 0.204526
vt 0.169638 0.161356
vt 0.122947 0.163945
vt 0.159063 0.597524
vt 0.115507 0.204803
vt 0.067699 0.211434
vt 0.135026 0.406435
vt 0.116522 0.229239
vt 0.137482 0.472791
vt 0.083372 0.249624
vt 0.073895 0.444026
vt 0.201562 0.570463
vt 0.080245 0.169098
vt 0.118895 0.501054
vt 0.049433 0.529601
vt 0.114538 0.524575
vt 0.109196 0.592985
vt 0.137393 0.541037
vt 0.088913 0.551035
vt 0.135491 0.520567
vt 0.127332 0.545124
vt 0.149081 0.518476
vt 0.092919 0.517306
vt 0.136908 0.508636
vt 0.141187 0.491824
vt 0.105016 0.469781
vt 0.153737 0.482580
vt 0.140493 0.443650
vt 0.159145 0.480832
vt 0.155780 0.438708
vt 0.155819 0.456752
vt 0.138919 0.458645
vt 0.145085 0.469732
vt 0.131289 0.491980
vt 0.157560 0.494649
vt 0.168247 0.470088
vt 0.173572 0.457966
vt 0.156717 0.472577
vt 0.152349 0.526591
vt 0.136568 0.568065
s 0
usemtl object_0
f 1/1/1 2/2/2 3/4/3
f 3/4/4 2/2/5 4/5/6
f 2/2/5 5/6/7 4/5/6
f 4/5/6 5/6/7 6/7/8
f 6/7/8 5/6/7 7/8/9
f 5/6/7 8/9/10 7/8/9
f 7/8/9 8/9/11 9/10/12
f 2/2/5 10/11/13 5/6/7
f 5/6/7 10/11/13 8/9/10
f 4/5/6 6/7/8 3/4/14
f 3/4/14 6/7/8 11/12/15
f 6/7/8 12/13/16 11/12/15
f 12/13/16 13/15/17 11/12/15
f 11/12/15 13/15/17 14/16/3
f 13/15/17 15/17/18 14/16/3
f 14/16/14 15/17/19 16/20/1
f 16/20/1 15/17/20 17/21/21
f 15/18/20 18/23/22 17/22/21
f 17/22/21 18/23/22 19/24/23
f 18/23/22 20/25/24 19/24/23
f 19/24/23 20/25/25 21/26/26
f 20/25/25 22/28/27 21/26/26
f 21/26/26 22/28/27 23/31/28
f 22/29/27 24/33/29 23/30/30
f 24/32/31 25/34/32 23/31/28
f 23/31/28 25/34/33 21/26/34
f 25/34/32 26/36/35 21/26/36
f 21/27/34 26/35/37 27/37/38
f 26/35/35 28/38/39 27/37/23
f 27/37/40 28/38/39 29/39/41
f 29/39/42 28/38/39 30/40/43
f 28/38/39 31/42/44 30/40/43
f 30/40/43 31/42/44 32/43/45
f 32/43/45 31/42/44 33/45/46
f 31/42/44 28/38/47 33/45/48
f 28/38/39 26/35/49 33/45/50
f 26/36/35 25/34/32 33/44/48
f 25/34/33 34/46/51 33/44/50
f 34/46/51 35/48/52 33/44/53
f 33/45/50 35/47/54 32/43/55
f 19/24/38 36/49/41 17/22/21
f 18/23/22 15/18/20 20/25/24
f 15/18/19 13/14/56 20/25/25
f 20/25/25 13/14/17 22/28/57
f 13/15/56 12/13/16 22/29/27
f 32/43/45 37/50/58 30/40/43
f 34/46/51 38/51/59 35/48/52
f 35/48/54 38/51/59 39/52/60
f 38/51/59 40/53/61 39/52/60
f 39/52/45 40/53/62 41/54/63
f 41/54/58 40/53/61 42/55/64
f 40/53/62 43/57/65 42/55/66
f 42/55/67 43/57/68 44/59/69
f 43/56/65 45/60/70 44/58/71
f 44/58/69 45/60/72 9/10/12
f 9/10/12 45/60/72 46/63/73
f 45/61/70 38/51/59 46/62/74
f 38/51/59 34/46/75 46/62/74
f 46/62/74 34/46/75 47/64/76
f 34/46/51 25/34/33 47/64/76
f 47/64/76 25/34/32 48/66/77
f 25/34/32 24/32/78 48/66/79
f 24/33/29 49/68/80 48/67/79
f 48/67/77 49/68/80 47/65/76
f 49/68/80 50/69/81 47/65/76
f 47/65/76 50/69/82 46/63/74
f 50/69/83 51/70/84 46/63/74
f 46/63/74 51/70/85 52/71/86
f 51/70/84 53/72/87 52/71/86
f 52/71/86 53/72/88 9/10/89
f 9/10/12 53/72/88 7/8/9
f 7/8/9 53/72/88 6/7/8
f 6/7/8 53/72/88 12/13/16
f 53/72/87 54/73/90 12/13/16
f 12/13/16 54/73/90 22/29/27
f 54/73/90 55/74/91 22/29/27
f 22/29/27 55/74/92 24/33/29
f 24/33/93 55/74/94 49/68/80
f 55/74/92 54/73/90 49/68/80
f 54/73/90 56/75/95 49/68/80
f 49/68/80 56/75/95 51/70/96
f 51/70/96 56/75/95 53/72/88
f 56/75/97 54/73/98 53/72/88
f 40/53/61 38/51/59 43/57/68
f 38/51/59 45/61/72 43/57/65
f 44/59/10 57/76/13 42/55/64
f 50/69/81 49/68/80 51/70/84
f 46/63/74 52/71/86 9/10/89
f 16/19/99 17/22/100 36/49/101 41/54/102 42/55/103 57/76/104
f 41/54/105 36/49/106 30/41/107
f 16/20/108 57/77/109 2/3/110
