# Blender 3.5.1
# www.blender.org
mtllib White_Mushroom_01.mtl
o White_Mushroom_2
v 2.565949 -1.885397 -0.223910
v 1.576865 -1.885397 -2.194340
v 4.454200 -0.953177 -0.223910
v 2.745783 -1.004967 -3.358685
v 4.184450 0.652313 -3.179555
v 2.296199 0.548733 -4.970855
v -0.581135 -1.056758 -4.791725
v -0.671052 0.496942 -5.687375
v -0.491219 -1.885397 -3.089990
v 5.263451 0.755893 -0.313475
v 4.634034 2.723913 -0.223910
v 4.544117 0.755893 2.463040
v 4.454200 -0.953177 -0.223910
v 2.835699 -0.953177 3.000430
v 2.565949 -1.885397 -0.223910
v 1.666782 -1.885397 1.746520
v -0.221468 -0.953177 4.612600
v -0.311385 -1.885397 2.731735
v 2.476032 0.704103 4.702165
v 2.296199 2.723913 4.075210
v 3.914700 2.723913 2.104779
v 1.936532 3.966873 2.015214
v 2.925616 3.966873 -0.223910
v 3.914700 2.723912 -2.552600
v 1.936532 2.672123 -4.343900
v -0.581135 2.620332 -4.970855
v -0.491219 3.915083 -3.448251
v 1.846616 3.966873 -2.373471
v -0.401301 4.691933 -0.223910
v -0.311385 3.966873 3.089994
v -0.131552 2.672123 4.791730
v -0.131552 0.704103 5.687380
v -2.649220 2.672123 4.075210
v -2.918969 0.704103 4.791730
v -0.221468 -0.953177 4.612600
v -3.548387 -0.953177 3.000430
v -0.311385 -1.885397 2.731735
v -2.289553 -1.885397 1.746520
v -5.166886 -1.004967 -0.223910
v -3.278636 -1.885397 -0.223910
v -2.559302 3.966873 2.015214
v -4.627387 2.672123 2.194345
v -3.728219 3.915083 -0.223910
v -2.739136 3.966873 -2.373471
v -2.918969 2.620332 -4.343900
v -3.368553 0.548733 -4.970855
v -0.581135 -1.056758 -4.791725
v -3.638303 -1.004967 -3.358685
v -2.469386 -1.885397 -2.194340
v -3.278636 -1.885397 -0.223910
v -5.166886 -1.004967 -0.223910
v -5.256804 0.600523 -2.910860
v -4.627387 2.672123 -2.642165
v -5.346721 2.672123 -0.223910
v -0.491219 -1.885397 -3.089990
v -5.346721 0.652313 2.552605
v -6.155971 0.652313 -0.223910
vn 0.4428 -0.8966 -0.0075
vn 0.3113 -0.8887 -0.3366
vn 0.7199 -0.6939 -0.0151
vn 0.3112 -0.8887 -0.3366
vn 0.4756 -0.7277 -0.4943
vn 0.7200 -0.6938 -0.0151
vn 0.4756 -0.7276 -0.4943
vn 0.8154 -0.1155 -0.5672
vn 0.4609 -0.1242 -0.8787
vn -0.0038 -0.7277 -0.6859
vn -0.0056 -0.0938 -0.9956
vn 0.0113 -0.9023 -0.4309
vn 0.0114 -0.9023 -0.4309
vn 0.8154 -0.1155 -0.5673
vn 0.9964 -0.0720 -0.0453
vn 0.8319 0.5544 -0.0226
vn 0.8715 -0.1112 0.4777
vn 0.9964 -0.0721 -0.0453
vn 0.5011 -0.7246 0.4731
vn 0.7200 -0.6939 -0.0151
vn 0.4428 -0.8966 -0.0076
vn 0.3474 -0.8826 0.3167
vn 0.5011 -0.7246 0.4730
vn 0.0170 -0.7336 0.6794
vn 0.0170 -0.7336 0.6793
vn -0.0038 -0.9023 0.4311
vn 0.5375 -0.1329 0.8328
vn 0.5374 -0.1328 0.8328
vn 0.5374 -0.1329 0.8328
vn 0.8714 -0.1112 0.4777
vn 0.4499 0.5832 0.6764
vn 0.7065 0.5903 0.3905
vn 0.4500 0.5832 0.6763
vn 0.7065 0.5902 0.3905
vn 0.3008 0.9097 0.2862
vn 0.4271 0.9042 -0.0075
vn 0.7001 0.5544 -0.4499
vn 0.3797 0.5544 -0.7406
vn 0.3797 0.5545 -0.7406
vn -0.0057 0.5398 -0.8418
vn -0.0000 0.8826 -0.4701
vn 0.2926 0.8966 -0.3325
vn -0.0035 1.0000 -0.0025
vn 0.2926 0.8966 -0.3324
vn -0.0035 1.0000 -0.0026
vn 0.4270 0.9042 -0.0075
vn -0.0019 0.9004 0.4350
vn -0.0000 0.5973 0.8020
vn 0.0246 -0.0851 0.9961
vn -0.4083 0.5832 0.7023
vn 0.0245 -0.0851 0.9961
vn -0.4084 0.5832 0.7022
vn -0.4923 -0.1155 0.8627
vn -0.4720 -0.7307 0.4933
vn -0.0038 -0.9023 0.4310
vn -0.4720 -0.7306 0.4934
vn -0.3236 -0.8847 0.3356
vn -0.4720 -0.7306 0.4933
vn -0.6860 -0.7276 -0.0000
vn -0.4348 -0.9004 0.0151
vn 0.4499 0.5832 0.6763
vn -0.3036 0.8985 0.3170
vn -0.4083 0.5832 0.7022
vn -0.6927 0.5867 0.4195
vn -0.4468 0.8946 0.0038
vn -0.3037 0.8985 0.3170
vn -0.3166 0.8946 -0.3153
vn -0.3166 0.8947 -0.3152
vn -0.4158 0.5617 -0.7153
vn -0.0056 0.5398 -0.8418
vn -0.0057 -0.0938 -0.9956
vn -0.4159 0.5617 -0.7152
vn -0.5024 -0.1285 -0.8550
vn -0.4865 -0.7395 -0.4652
vn -0.0038 -0.7276 -0.6859
vn -0.3206 -0.8947 -0.3112
vn -0.3206 -0.8946 -0.3112
vn -0.4866 -0.7395 -0.4651
vn -0.4347 -0.9004 0.0151
vn -0.6859 -0.7277 -0.0000
vn -0.8580 -0.1155 -0.5005
vn -0.4159 0.5617 -0.7153
vn -0.8580 -0.1155 -0.5004
vn -0.7134 0.5653 -0.4141
vn -0.8173 0.5761 -0.0113
vn -0.4467 0.8947 0.0038
vn -0.8503 -0.1155 0.5135
vn -0.8503 -0.1155 0.5134
vn -0.9970 -0.0764 -0.0151
vn -0.8173 0.5760 -0.0113
vn 0.1291 -0.9876 0.0888
vn -0.1708 -0.9780 0.1200
vn -0.1768 -0.9821 -0.0645
vn -0.0799 -0.9794 -0.1855
vn 0.2049 -0.9754 -0.0809
vn -0.1978 -0.9794 0.0408
vn -0.0000 -1.0000 -0.0000
vn 0.1707 -0.9754 0.1393
vn -0.0324 -0.9894 0.1418
vn -0.1839 -0.9780 -0.0989
vn 0.1172 -0.9876 -0.1040
vn 0.0268 -0.9771 0.2111
vt 0.004100 0.750816
vt 0.036782 0.725982
vt 0.033082 0.713166
vt 0.011285 0.791014
vt 0.058299 0.748900
vt 0.065816 0.786887
vt 0.099308 0.751995
vt 0.101187 0.699011
vt 0.153618 0.721892
vt 0.060915 0.692711
vt 0.035492 0.842782
vt 0.072816 0.843187
vt 0.064895 0.894402
vt 0.012611 0.895213
vt 0.062316 0.937511
vt 0.006311 0.935484
vt 0.028771 0.781402
vt 0.039582 0.959618
vt 0.038224 0.788258
vt 0.104614 0.985115
vt 0.064416 0.992300
vt 0.105498 0.934490
vt 0.118099 0.906892
vt 0.090392 0.877416
vt 0.123995 0.873216
vt 0.104393 0.842487
vt 0.087886 0.809105
vt 0.117805 0.779113
vt 0.154687 0.762312
vt 0.154687 0.793188
vt 0.122705 0.812016
vt 0.155018 0.841418
vt 0.155203 0.891491
vt 0.154797 0.923510
vt 0.156382 0.960908
vt 0.190316 0.906192
vt 0.207597 0.932389
vt 0.208813 0.983789
vt 0.250816 0.933900
vt 0.249084 0.990089
vt 0.097746 0.796915
vt 0.273218 0.956818
vt 0.104603 0.787463
vt 0.298605 0.891786
vt 0.305900 0.931910
vt 0.186595 0.871484
vt 0.221598 0.874284
vt 0.204686 0.839797
vt 0.186005 0.809695
vt 0.190206 0.776313
vt 0.207191 0.749195
vt 0.205386 0.697685
vt 0.247905 0.745289
vt 0.270418 0.723182
vt 0.103807 0.721084
vt 0.303689 0.747316
vt 0.113260 0.727941
vt 0.297389 0.787587
vt 0.245216 0.786408
vt 0.218982 0.804205
vt 0.236189 0.838987
vt 0.245584 0.690500
vt 0.096752 0.711798
vt 0.248016 0.890496
vt 0.274508 0.840018
s 0
usemtl object_0
f 1/1/1 2/2/2 3/4/3
f 2/2/4 4/5/5 3/4/6
f 3/4/6 4/5/7 5/6/8
f 5/6/8 4/5/7 6/7/9
f 4/5/7 7/8/10 6/7/9
f 6/7/9 7/8/10 8/9/11
f 2/2/4 9/10/12 4/5/7
f 4/5/5 9/10/13 7/8/10
f 3/4/3 5/6/14 10/11/15
f 5/6/8 11/12/16 10/11/15
f 11/12/16 12/13/17 10/11/15
f 10/11/18 12/13/17 13/14/6
f 12/13/17 14/15/19 13/14/20
f 13/14/20 14/15/19 15/16/21
f 15/16/1 14/15/19 16/18/22
f 14/15/23 17/20/24 16/18/22
f 16/18/22 17/20/25 18/21/26
f 17/20/24 14/15/19 19/22/27
f 14/15/19 12/13/17 19/22/28
f 19/22/29 12/13/30 20/23/31
f 12/13/17 21/24/32 20/23/31
f 20/23/33 21/24/34 22/25/35
f 22/25/35 21/24/34 23/26/36
f 21/24/32 11/12/16 23/26/36
f 23/26/36 11/12/16 24/27/37
f 11/12/16 5/6/14 24/27/37
f 24/27/37 5/6/8 25/28/38
f 5/6/8 6/7/9 25/28/39
f 6/7/9 8/9/11 25/28/38
f 8/9/11 26/29/40 25/28/38
f 26/29/40 27/30/41 25/28/38
f 25/28/38 27/30/41 28/31/42
f 27/30/41 29/32/43 28/31/44
f 28/31/44 29/32/45 23/26/46
f 23/26/46 29/32/45 22/25/35
f 29/32/45 30/33/47 22/25/35
f 22/25/35 30/33/47 20/23/31
f 30/33/47 31/34/48 20/23/31
f 20/23/31 31/34/48 32/35/49
f 31/34/48 33/36/50 32/35/51
f 33/36/52 34/37/53 32/35/51
f 32/35/49 34/37/53 35/38/24
f 34/37/53 36/39/54 35/38/24
f 35/38/25 36/39/54 37/40/26
f 37/40/55 36/39/56 38/42/57
f 36/39/58 39/44/59 38/42/57
f 38/42/57 39/44/59 40/45/60
f 17/20/24 19/22/29 32/35/51
f 32/35/51 19/22/29 20/23/61
f 11/12/16 21/24/32 12/13/30
f 25/28/38 28/31/42 24/27/37
f 28/31/44 23/26/36 24/27/37
f 31/34/48 30/33/47 33/36/50
f 30/33/47 41/46/62 33/36/63
f 33/36/63 41/46/62 42/47/64
f 42/47/64 41/46/62 43/48/65
f 41/46/66 29/32/45 43/48/65
f 43/48/65 29/32/45 44/49/67
f 29/32/45 27/30/41 44/49/67
f 44/49/68 27/30/41 45/50/69
f 27/30/41 26/29/70 45/50/69
f 26/29/70 8/9/71 45/50/69
f 45/50/72 8/9/71 46/51/73
f 8/9/11 47/52/10 46/51/73
f 46/51/73 47/52/10 48/53/74
f 47/52/75 49/54/76 48/53/74
f 49/54/77 50/56/60 48/53/78
f 50/56/79 51/58/80 48/53/74
f 51/58/80 52/59/81 48/53/74
f 48/53/74 52/59/81 46/51/73
f 46/51/73 52/59/81 45/50/82
f 52/59/83 53/60/84 45/50/72
f 45/50/69 53/60/84 44/49/67
f 44/49/68 53/60/84 43/48/65
f 43/48/65 53/60/84 54/61/85
f 53/60/84 52/59/81 54/61/85
f 30/33/47 29/32/45 41/46/66
f 47/52/10 55/62/12 49/54/77
f 43/48/86 54/61/85 42/47/64
f 54/61/85 56/64/87 42/47/64
f 42/47/64 56/64/88 33/36/50
f 33/36/63 56/64/87 34/37/53
f 34/37/53 56/64/88 36/39/58
f 36/39/56 56/64/87 39/44/80
f 39/44/59 56/64/88 57/65/89
f 56/64/88 54/61/85 57/65/89
f 54/61/90 52/59/81 57/65/89
f 57/65/89 52/59/83 51/58/80
f 16/19/91 50/57/92 49/55/93 55/63/94 15/17/95
f 55/63/96 2/3/97 15/17/98
f 38/43/99 50/57/100 16/19/101 37/41/102
